<svg width="298px" height="46px" viewBox="87 63 298 46" version="1.1" xmlns="http://www.w3.org/2000/svg" xmlns:xlink="http://www.w3.org/1999/xlink">
    <desc>Farm Credit Canada</desc>
    <defs>
        <polygon id="path-1" points="0.738171831 45 46.7444361 45 46.7444361 0.971123498 0.738171831 0.971123498 0.738171831 45"></polygon>
        <polygon id="path-3" points="0 45.0286 297.372 45.0286 297.372 0.9996 0 0.9996"></polygon>
    </defs>
    <g id="FCC-Tagline-English" stroke="none" stroke-width="1" fill="none" fill-rule="evenodd" transform="translate(87.000000, 63.000000)">
        <path d="M58.0099,17.358 C58.0099,17.358 58.0139,16.805 57.2129,16.709 C49.8779,16.508 43.8859,20.928 43.8859,20.928 C42.6969,21.663 36.7339,26.833 36.7339,26.833 C36.5369,27.003 36.3309,27.165 36.1209,27.323 C34.2369,28.93 31.2969,31.231 28.9549,32.159 C36.6649,32.989 40.9959,30.415 40.9959,30.415 C44.5719,28.975 49.0059,24.512 49.0059,24.512 C52.1289,21.067 55.6289,19.104 57.1869,18.338 C57.4829,18.172 57.9999,17.821 58.0099,17.358 L58.0099,17.358 Z" id="Fill-1" fill="#FEFEFE"></path>
        <path d="M0.3985,19.5904 C0.0095,19.5964 0.0015,19.9144 0.0015,19.9144 C-0.0245,20.2604 0.4145,20.4104 0.4145,20.4104 L0.4125,20.4124 C2.0465,21.0904 8.2455,23.7894 12.2035,27.2724 C12.2035,27.2724 14.9215,25.9424 16.1545,24.3994 C16.1545,24.3994 10.1155,20.1904 0.3985,19.5904" id="Fill-3" fill="#FEFEFE"></path>
        <path d="M1.211,30.9966 C1.233,31.0106 1.248,31.0206 1.25,31.0206 C1.236,31.0126 1.225,31.0046 1.211,30.9966" id="Fill-5" fill="#FEFEFE"></path>
        <path d="M0.9093,30.3072 L0.9423,30.2502 C0.9333,30.2602 0.9203,30.2782 0.9203,30.2782 C0.9143,30.2872 0.9143,30.2972 0.9093,30.3072" id="Fill-7" fill="#FEFEFE"></path>
        <path d="M59.1798,9.1998 C59.1798,9.1998 59.1898,8.5928 58.3928,8.5628 C57.0758,8.5568 55.8128,8.5668 54.6278,8.6018 L49.0678,8.9248 C43.5628,9.4128 40.2428,10.2408 39.2138,10.5298 C29.0748,13.8498 22.8978,21.4248 22.8978,21.4248 C11.9208,32.9788 3.5328,30.8168 1.5788,30.0828 C1.1938,29.9518 0.9918,30.1818 0.9428,30.2508 L0.9098,30.3068 C0.7308,30.6488 1.0878,30.9188 1.2108,30.9968 C1.2248,31.0048 1.2368,31.0118 1.2498,31.0198 L1.2538,31.0218 C3.7318,32.6118 6.9298,33.7838 6.9298,33.7838 C14.7348,36.2268 23.8078,32.3698 23.8078,32.3698 C30.1508,30.0048 42.2588,18.7018 42.2588,18.7018 C49.3098,12.4518 55.8378,10.5868 58.2168,10.0828 L58.2128,10.0808 C58.2128,10.0808 59.1798,9.9618 59.1798,9.1998" id="Fill-9" fill="#FEFEFE"></path>
        <g id="Group-13" transform="translate(44.000000, 0.028600)">
            <mask id="mask-2" fill="white">
                <use xlink:href="#path-1"></use>
            </mask>
            <g id="Clip-12"></g>
            <path d="M46.3439,3.1438 C46.3439,3.1438 44.6029,-0.6552 38.5949,1.7938 C38.5949,1.7938 34.8379,3.1088 27.4629,11.8898 L22.5529,11.8708 L19.6149,15.0458 L25.3229,15.1208 L17.0529,28.8018 C17.0529,28.8018 8.7819,42.0188 1.5199,43.4838 L1.5299,43.4858 C0.6839,43.6708 0.7389,44.2568 0.7389,44.2568 C0.7389,44.9428 1.7169,44.9918 1.7169,44.9918 L1.7169,44.9938 C3.2679,45.0618 6.6329,44.6538 11.6759,41.0698 C11.6759,41.0698 17.2109,37.6358 24.2989,27.1108 C24.2989,27.1108 29.8399,17.7898 31.8739,15.2298 L35.6339,15.1988 L38.9409,12.0028 L33.8559,12.0538 C33.8559,12.0538 34.9409,9.7488 38.8309,6.6638 C38.8309,6.6638 40.3729,5.4548 42.0659,4.7398 C42.0659,4.7398 42.9159,4.4578 43.2789,4.4958 C43.2789,4.4958 44.2439,4.3608 44.0839,5.9988 L44.0939,5.9978 C44.0939,5.9978 43.8879,7.0658 44.7909,7.1848 C44.7909,7.1848 46.0329,7.4368 46.6189,5.8918 C46.8109,5.2028 46.8279,4.2888 46.3439,3.1438" id="Fill-11" fill="#FEFEFE" mask="url(#mask-2)"></path>
        </g>
        <path d="M101.6944,22.4283 C101.6944,22.4283 102.8614,22.4203 103.0894,20.6763 C103.4404,16.8283 99.6144,15.5063 99.6144,15.5063 C96.1464,14.3343 92.6014,16.2133 92.6014,16.2133 C91.8874,16.6393 91.3944,16.9303 91.3944,16.9303 L91.2954,16.8383 C87.8904,12.0143 81.3824,15.8463 81.3824,15.8463 C75.7214,19.5003 73.1704,23.2973 72.0264,26.1493 C72.0294,26.1333 72.0294,26.1233 72.0294,26.1103 C72.0294,26.1103 71.9844,26.2393 71.9084,26.4513 C71.1324,28.5263 71.0954,30.0533 71.1184,30.5743 C71.0154,32.8403 71.5744,35.3263 74.1364,36.3913 C78.4444,37.9403 81.4354,35.2523 81.5884,35.1103 C81.0754,34.4183 80.7674,33.7133 80.5854,33.1843 C74.0954,35.6493 76.6794,29.0043 76.6794,29.0043 C78.2804,24.5283 82.1434,20.7423 82.1434,20.7423 C86.8834,15.4483 88.8824,18.8153 88.8824,18.8153 C84.6184,22.6453 83.2974,26.0783 83.2974,26.0783 C80.3664,32.7293 84.8654,35.8753 84.8654,35.8753 C88.1004,38.3873 92.6104,35.8913 94.5764,34.5613 C94.7634,34.4103 95.2144,33.9533 94.8294,33.2823 C94.8294,33.2823 94.3664,32.3673 92.6064,32.9283 L92.6064,32.9243 C91.0784,33.3283 89.9954,33.3193 89.9954,33.3193 C86.7064,33.2133 87.8674,29.4163 87.8674,29.4163 C88.1424,28.1583 88.6774,26.9873 89.2234,26.0283 C90.3194,23.8693 92.0264,22.0323 93.3054,20.8463 C94.5944,19.4203 96.6474,18.4423 96.6474,18.4423 C100.5584,16.8913 100.8264,19.8303 100.6924,21.4963 C100.7084,21.5803 100.8814,22.4573 101.6944,22.4283" id="Fill-14" fill="#FEFEFE"></path>
        <polygon id="Fill-16" fill="#FEFEFE" points="115.9898 11.9952 122.7848 11.9952 122.7848 13.9212 118.4418 13.9212 118.4418 16.9232 122.5748 16.9232 122.5748 18.8372 118.4418 18.8372 118.4418 24.1652 115.9898 24.1652"></polygon>
        <path d="M126.8121,22.6631 C127.5301,22.6631 128.0901,22.3501 128.4581,21.8631 C128.8431,21.3591 128.9491,20.7151 128.9491,20.0191 L127.9331,20.0191 C126.8821,20.0191 125.3241,20.1931 125.3241,21.5671 C125.3241,22.3321 125.9711,22.6631 126.8121,22.6631 L126.8121,22.6631 Z M124.0631,15.6711 C124.9731,15.2521 126.1991,14.9901 127.1981,14.9901 C129.9471,14.9901 131.0851,16.1231 131.0851,18.7671 L131.0851,19.9151 C131.0851,20.8191 131.1021,21.4981 131.1201,22.1591 C131.1371,22.8371 131.1721,23.4651 131.2251,24.1651 L129.1591,24.1651 C129.0711,23.6931 129.0711,23.0981 129.0531,22.8191 L129.0191,22.8191 C128.4761,23.8151 127.3021,24.3751 126.2341,24.3751 C124.6411,24.3751 123.0831,23.4121 123.0831,21.7061 C123.0831,20.3671 123.7301,19.5841 124.6241,19.1491 C125.5161,18.7141 126.6721,18.6271 127.6531,18.6271 L128.9491,18.6271 C128.9491,17.1841 128.3001,16.6971 126.9171,16.6971 C125.9191,16.6971 124.9201,17.0791 124.1321,17.6711 L124.0631,15.6711 Z" id="Fill-18" fill="#FEFEFE"></path>
        <path d="M132.399,15.1998 L134.483,15.1998 L134.483,17.2368 L134.518,17.2368 C134.623,16.4028 135.587,14.9898 136.987,14.9898 C137.215,14.9898 137.46,14.9898 137.706,15.0598 L137.706,17.4108 C137.495,17.2888 137.075,17.2188 136.655,17.2188 C134.746,17.2188 134.746,19.5848 134.746,20.8718 L134.746,24.1658 L132.399,24.1658 L132.399,15.1998 Z" id="Fill-20" fill="#FEFEFE"></path>
        <path d="M138.6852,15.1998 L140.8742,15.1998 L140.8742,16.4538 L140.9102,16.4538 C141.6452,15.3578 142.7132,14.9898 143.5882,14.9898 C144.8502,14.9898 145.7432,15.4628 146.2502,16.5748 C146.7932,15.4968 147.9662,14.9898 149.0702,14.9898 C151.2942,14.9898 151.9242,16.5058 151.9242,18.5058 L151.9242,24.1658 L149.5772,24.1658 L149.5772,18.8198 C149.5772,17.9848 149.5772,16.8018 148.2292,16.8018 C146.6712,16.8018 146.4782,18.6448 146.4782,19.8108 L146.4782,24.1658 L144.1312,24.1658 L144.1312,18.8198 C144.1312,17.9848 144.1312,16.8018 142.7842,16.8018 C141.2252,16.8018 141.0322,18.6448 141.0322,19.8108 L141.0322,24.1658 L138.6852,24.1658 L138.6852,15.1998 Z" id="Fill-22" fill="#FEFEFE"></path>
        <path d="M165.1979,23.9908 C164.3039,24.2008 163.3409,24.3758 162.4139,24.3758 C158.4559,24.3758 155.7069,22.4028 155.7069,18.2978 C155.7069,14.1318 158.2629,11.7848 162.4139,11.7848 C163.2189,11.7848 164.2879,11.9428 165.1799,12.2928 L165.0059,14.3588 C164.0769,13.8338 163.2369,13.7108 162.3609,13.7108 C159.8399,13.7108 158.2629,15.6358 158.2629,18.1228 C158.2629,20.5928 159.8039,22.4548 162.4139,22.4548 C163.3769,22.4548 164.5149,22.2448 165.0929,21.9498 L165.1979,23.9908 Z" id="Fill-24" fill="#FEFEFE"></path>
        <path d="M166.4059,15.1998 L168.4899,15.1998 L168.4899,17.2368 L168.5249,17.2368 C168.6299,16.4028 169.5939,14.9898 170.9939,14.9898 C171.2209,14.9898 171.4669,14.9898 171.7129,15.0598 L171.7129,17.4108 C171.5019,17.2888 171.0819,17.2188 170.6619,17.2188 C168.7529,17.2188 168.7529,19.5848 168.7529,20.8718 L168.7529,24.1658 L166.4059,24.1658 L166.4059,15.1998 Z" id="Fill-26" fill="#FEFEFE"></path>
        <path d="M178.0719,18.8018 C178.0029,17.6708 177.4769,16.6978 176.1639,16.6978 C174.8499,16.6978 174.1839,17.6008 174.0799,18.8018 L178.0719,18.8018 Z M179.6479,23.6578 C178.7909,24.1308 177.8089,24.3758 176.5489,24.3758 C173.5719,24.3758 171.8389,22.6628 171.8389,19.7228 C171.8389,17.1318 173.2209,14.9898 176.0229,14.9898 C179.3679,14.9898 180.3139,17.2718 180.3139,20.4028 L174.0799,20.4028 C174.1839,21.8458 175.2009,22.6628 176.6539,22.6628 C177.7919,22.6628 178.7729,22.2448 179.6479,21.7588 L179.6479,23.6578 Z" id="Fill-28" fill="#FEFEFE"></path>
        <path d="M185.3033,22.5586 C186.8623,22.5586 187.3693,20.9246 187.3693,19.6536 C187.3693,18.4026 186.7753,16.8016 185.2693,16.8016 C183.7443,16.8016 183.3243,18.4536 183.3243,19.6536 C183.3243,20.8896 183.7623,22.5586 185.3033,22.5586 L185.3033,22.5586 Z M187.4573,23.1506 L187.4223,23.1506 C186.7223,24.0256 185.7593,24.3756 184.6563,24.3756 C181.8893,24.3756 180.8733,22.1066 180.8733,19.6536 C180.8733,17.1846 181.8893,14.9896 184.6563,14.9896 C185.8283,14.9896 186.6523,15.3926 187.3523,16.2456 L187.3873,16.2456 L187.3873,11.0846 L189.7343,11.0846 L189.7343,24.1656 L187.4573,24.1656 L187.4573,23.1506 Z" id="Fill-30" fill="#FEFEFE"></path>
        <mask id="mask-4" fill="white">
            <use xlink:href="#path-3"></use>
        </mask>
        <g id="Clip-33"></g>
        <path d="M191.153,24.1656 L193.5,24.1656 L193.5,15.1996 L191.153,15.1996 L191.153,24.1656 Z M191.153,13.5546 L193.5,13.5546 L193.5,11.3126 L191.153,11.3126 L191.153,13.5546 Z" id="Fill-32" fill="#FEFEFE" mask="url(#mask-4)"></path>
        <path d="M196.3014,16.9068 L194.5684,16.9068 L194.5684,15.1998 L196.3014,15.1998 L196.3014,13.3958 L198.6484,12.6428 L198.6484,15.1998 L200.7324,15.1998 L200.7324,16.9068 L198.6484,16.9068 L198.6484,21.0808 C198.6484,21.8458 198.8584,22.5588 199.7514,22.5588 C200.1714,22.5588 200.5744,22.4718 200.8194,22.3148 L200.8904,24.1658 C200.3994,24.3048 199.8574,24.3758 199.1554,24.3758 C197.3174,24.3758 196.3014,23.2368 196.3014,21.4638 L196.3014,16.9068 Z" id="Fill-34" fill="#FEFEFE" mask="url(#mask-4)"></path>
        <path d="M215.0035,23.9908 C214.1095,24.2008 213.1475,24.3758 212.2195,24.3758 C208.2615,24.3758 205.5125,22.4028 205.5125,18.2978 C205.5125,14.1318 208.0685,11.7848 212.2195,11.7848 C213.0245,11.7848 214.0935,11.9428 214.9855,12.2928 L214.8115,14.3588 C213.8825,13.8338 213.0425,13.7108 212.1665,13.7108 C209.6455,13.7108 208.0685,15.6358 208.0685,18.1228 C208.0685,20.5928 209.6095,22.4548 212.2195,22.4548 C213.1825,22.4548 214.3205,22.2448 214.8985,21.9498 L215.0035,23.9908 Z" id="Fill-35" fill="#FEFEFE" mask="url(#mask-4)"></path>
        <path d="M219.3111,22.6631 C220.0291,22.6631 220.5891,22.3501 220.9571,21.8631 C221.3421,21.3591 221.4481,20.7151 221.4481,20.0191 L220.4321,20.0191 C219.3811,20.0191 217.8231,20.1931 217.8231,21.5671 C217.8231,22.3321 218.4701,22.6631 219.3111,22.6631 L219.3111,22.6631 Z M216.5621,15.6711 C217.4721,15.2521 218.6981,14.9901 219.6971,14.9901 C222.4461,14.9901 223.5851,16.1231 223.5851,18.7671 L223.5851,19.9151 C223.5851,20.8191 223.6011,21.4981 223.6191,22.1591 C223.6361,22.8371 223.6711,23.4651 223.7241,24.1651 L221.6581,24.1651 C221.5701,23.6931 221.5701,23.0981 221.5521,22.8191 L221.5181,22.8191 C220.9751,23.8151 219.8011,24.3751 218.7331,24.3751 C217.1401,24.3751 215.5821,23.4121 215.5821,21.7061 C215.5821,20.3671 216.2291,19.5841 217.1231,19.1491 C218.0151,18.7141 219.1711,18.6271 220.1521,18.6271 L221.4481,18.6271 C221.4481,17.1841 220.7991,16.6971 219.4161,16.6971 C218.4191,16.6971 217.4191,17.0791 216.6311,17.6711 L216.5621,15.6711 Z" id="Fill-36" fill="#FEFEFE" mask="url(#mask-4)"></path>
        <path d="M225.1773,15.1998 L227.4023,15.1998 L227.4023,16.4188 L227.4373,16.4188 C228.1723,15.3918 229.1703,14.9898 230.3963,14.9898 C232.5323,14.9898 233.4603,16.4888 233.4603,18.5058 L233.4603,24.1658 L231.1143,24.1658 L231.1143,19.3758 C231.1143,18.2798 231.0963,16.8018 229.5903,16.8018 C227.8923,16.8018 227.5243,18.6278 227.5243,19.7758 L227.5243,24.1658 L225.1773,24.1658 L225.1773,15.1998 Z" id="Fill-37" fill="#FEFEFE" mask="url(#mask-4)"></path>
        <path d="M238.2066,22.6631 C238.9246,22.6631 239.4846,22.3501 239.8526,21.8631 C240.2376,21.3591 240.3436,20.7151 240.3436,20.0191 L239.3276,20.0191 C238.2766,20.0191 236.7186,20.1931 236.7186,21.5671 C236.7186,22.3321 237.3656,22.6631 238.2066,22.6631 L238.2066,22.6631 Z M235.4576,15.6711 C236.3676,15.2521 237.5936,14.9901 238.5926,14.9901 C241.3416,14.9901 242.4796,16.1231 242.4796,18.7671 L242.4796,19.9151 C242.4796,20.8191 242.4966,21.4981 242.5146,22.1591 C242.5316,22.8371 242.5666,23.4651 242.6196,24.1651 L240.5536,24.1651 C240.4656,23.6931 240.4656,23.0981 240.4476,22.8191 L240.4136,22.8191 C239.8706,23.8151 238.6966,24.3751 237.6286,24.3751 C236.0356,24.3751 234.4776,23.4121 234.4776,21.7061 C234.4776,20.3671 235.1246,19.5841 236.0186,19.1491 C236.9106,18.7141 238.0666,18.6271 239.0476,18.6271 L240.3436,18.6271 C240.3436,17.1841 239.6946,16.6971 238.3116,16.6971 C237.3136,16.6971 236.3146,17.0791 235.5266,17.6711 L235.4576,15.6711 Z" id="Fill-38" fill="#FEFEFE" mask="url(#mask-4)"></path>
        <path d="M248.065,22.5586 C249.624,22.5586 250.131,20.9246 250.131,19.6536 C250.131,18.4026 249.537,16.8016 248.031,16.8016 C246.506,16.8016 246.086,18.4536 246.086,19.6536 C246.086,20.8896 246.524,22.5586 248.065,22.5586 L248.065,22.5586 Z M250.219,23.1506 L250.184,23.1506 C249.484,24.0256 248.521,24.3756 247.418,24.3756 C244.651,24.3756 243.635,22.1066 243.635,19.6536 C243.635,17.1846 244.651,14.9896 247.418,14.9896 C248.59,14.9896 249.414,15.3926 250.114,16.2456 L250.149,16.2456 L250.149,11.0846 L252.496,11.0846 L252.496,24.1656 L250.219,24.1656 L250.219,23.1506 Z" id="Fill-39" fill="#FEFEFE" mask="url(#mask-4)"></path>
        <path d="M257.4166,22.6631 C258.1346,22.6631 258.6946,22.3501 259.0626,21.8631 C259.4476,21.3591 259.5536,20.7151 259.5536,20.0191 L258.5376,20.0191 C257.4866,20.0191 255.9286,20.1931 255.9286,21.5671 C255.9286,22.3321 256.5756,22.6631 257.4166,22.6631 L257.4166,22.6631 Z M254.6676,15.6711 C255.5776,15.2521 256.8036,14.9901 257.8026,14.9901 C260.5516,14.9901 261.6896,16.1231 261.6896,18.7671 L261.6896,19.9151 C261.6896,20.8191 261.7066,21.4981 261.7246,22.1591 C261.7416,22.8371 261.7766,23.4651 261.8296,24.1651 L259.7636,24.1651 C259.6756,23.6931 259.6756,23.0981 259.6576,22.8191 L259.6236,22.8191 C259.0806,23.8151 257.9066,24.3751 256.8386,24.3751 C255.2456,24.3751 253.6866,23.4121 253.6866,21.7061 C253.6866,20.3671 254.3346,19.5841 255.2276,19.1491 C256.1206,18.7141 257.2766,18.6271 258.2576,18.6271 L259.5536,18.6271 C259.5536,17.1841 258.9046,16.6971 257.5216,16.6971 C256.5236,16.6971 255.5246,17.0791 254.7366,17.6711 L254.6676,15.6711 Z" id="Fill-40" fill="#FEFEFE" mask="url(#mask-4)"></path>
        <path d="M119.0851,31.7417 L117.5561,35.5477 L120.6141,35.5477 L119.0851,31.7417 Z M118.5461,30.7077 L119.7011,30.7077 L122.9461,38.3867 L121.7471,38.3867 L120.9661,36.4497 L117.2041,36.4497 L116.4221,38.3867 L115.2671,38.3867 L118.5461,30.7077 Z" id="Fill-41" fill="#FEFEFE" mask="url(#mask-4)"></path>
        <path d="M125.8658,37.6822 C127.0328,37.6822 127.5158,36.5272 127.5158,35.5922 C127.5158,34.5462 126.9768,33.4802 125.8548,33.4802 C124.7328,33.4802 124.2928,34.5362 124.3148,35.5592 C124.2928,36.4392 124.7548,37.6822 125.8658,37.6822 L125.8658,37.6822 Z M127.5598,37.5942 L127.5378,37.5942 C127.2638,38.0122 126.6248,38.5182 125.6238,38.5182 C123.9298,38.5182 123.2148,37.0112 123.2148,35.4822 C123.2148,33.9742 124.0068,32.6432 125.6348,32.6432 C126.6148,32.6432 127.1758,33.0292 127.4938,33.5452 L127.5158,33.5452 L127.5158,30.1352 L128.5508,30.1352 L128.5508,38.3862 L127.5598,38.3862 L127.5598,37.5942 Z" id="Fill-42" fill="#FEFEFE" mask="url(#mask-4)"></path>
        <polygon id="Fill-43" fill="#FEFEFE" mask="url(#mask-4)" points="132.5729 38.3863 131.3409 38.3863 129.3269 32.7763 130.4609 32.7763 131.9789 37.3523 132.0009 37.3523 133.5519 32.7763 134.5859 32.7763"></polygon>
        <path d="M138.5279,35.7125 C138.3079,35.7125 138.0889,35.6915 137.8679,35.6915 C137.3069,35.6915 135.9209,35.7785 135.9209,36.7695 C135.9209,37.3625 136.4929,37.6825 136.9659,37.6825 C137.9889,37.6825 138.5279,37.0445 138.5279,36.2075 L138.5279,35.7125 Z M135.4589,33.1715 C135.9759,32.8635 136.5909,32.6435 137.3069,32.6435 C138.9139,32.6435 139.5619,33.4355 139.5619,34.9645 L139.5619,37.2855 C139.5619,37.9245 139.5849,38.2215 139.6059,38.3865 L138.6379,38.3865 L138.6379,37.6595 L138.6159,37.6595 C138.3749,38.0015 137.8239,38.5185 136.8779,38.5185 C135.6679,38.5185 134.8199,37.9895 134.8199,36.7695 C134.8199,35.3605 136.3609,34.9205 137.4279,34.9205 C137.8359,34.9205 138.1209,34.9205 138.5279,34.9425 C138.5279,33.9745 138.1759,33.4805 137.1419,33.4805 C136.5589,33.4805 135.9319,33.6995 135.5139,34.0515 L135.4589,33.1715 Z" id="Fill-44" fill="#FEFEFE" mask="url(#mask-4)"></path>
        <path d="M141.0074,32.7759 L142.0084,32.7759 L142.0084,33.6669 L142.0304,33.6669 C142.3384,33.0289 143.0864,32.6429 143.8674,32.6429 C145.3194,32.6429 145.9694,33.5459 145.9694,35.0529 L145.9694,38.3859 L144.9354,38.3859 L144.9354,35.4819 C144.9354,34.1719 144.6494,33.5349 143.7464,33.4799 C142.5694,33.4799 142.0414,34.4249 142.0414,35.7899 L142.0414,38.3859 L141.0074,38.3859 L141.0074,32.7759 Z" id="Fill-45" fill="#FEFEFE" mask="url(#mask-4)"></path>
        <path d="M151.0592,33.7212 C150.6642,33.5562 150.2672,33.4802 149.9372,33.4802 C148.7822,33.4802 148.1332,34.5142 148.1332,35.5802 C148.1332,36.5812 148.6722,37.6822 150.0032,37.6822 C150.3552,37.6822 150.7952,37.5722 151.1152,37.3632 L151.1912,38.2872 C150.7622,38.4852 150.2672,38.5182 149.8932,38.5182 C148.1992,38.5182 147.0332,37.1872 147.0332,35.5802 C147.0332,33.8752 148.1772,32.6432 149.8932,32.6432 C150.3112,32.6432 150.8502,32.7422 151.1472,32.8642 L151.0592,33.7212 Z" id="Fill-46" fill="#FEFEFE" mask="url(#mask-4)"></path>
        <path d="M152.13,38.3856 L153.164,38.3856 L153.164,32.7756 L152.13,32.7756 L152.13,38.3856 Z M152.065,31.5206 L153.231,31.5206 L153.231,30.3546 L152.065,30.3546 L152.065,31.5206 Z" id="Fill-47" fill="#FEFEFE" mask="url(#mask-4)"></path>
        <path d="M154.7115,32.7759 L155.7125,32.7759 L155.7125,33.6669 L155.7345,33.6669 C156.0425,33.0289 156.7905,32.6429 157.5715,32.6429 C159.0235,32.6429 159.6735,33.5459 159.6735,35.0529 L159.6735,38.3859 L158.6395,38.3859 L158.6395,35.4819 C158.6395,34.1719 158.3535,33.5349 157.4505,33.4799 C156.2735,33.4799 155.7455,34.4249 155.7455,35.7899 L155.7455,38.3859 L154.7115,38.3859 L154.7115,32.7759 Z" id="Fill-48" fill="#FEFEFE" mask="url(#mask-4)"></path>
        <path d="M165.0856,35.647 C165.0856,34.481 164.5466,33.48 163.4466,33.48 C162.4006,33.48 161.8846,34.613 161.8846,35.57 C161.8846,36.626 162.4786,37.55 163.4466,37.55 C164.4146,37.55 165.0856,36.692 165.0856,35.647 L165.0856,35.647 Z M166.1196,38.144 C166.1196,39.849 165.2396,40.829 163.2266,40.829 C162.6326,40.829 162.1146,40.752 161.2136,40.444 L161.3226,39.487 C162.1146,39.849 162.5886,39.993 163.3476,39.993 C164.4366,39.993 165.0856,39.255 165.0856,38.067 L165.0856,37.517 L165.0646,37.517 C164.6236,38.1 163.8976,38.386 163.1826,38.386 C161.5756,38.386 160.7836,37.077 160.7836,35.625 C160.7836,34.184 161.5986,32.643 163.2926,32.643 C164.2826,32.643 164.8326,33.006 165.1406,33.612 L165.1626,33.612 L165.1626,32.776 L166.1196,32.776 L166.1196,38.144 Z" id="Fill-49" fill="#FEFEFE" mask="url(#mask-4)"></path>
        <path d="M173.3668,33.6119 L171.8818,33.6119 L171.8818,36.6809 C171.8818,37.3309 172.2778,37.6819 172.7508,37.6819 C173.0698,37.6819 173.3018,37.5839 173.4548,37.4839 L173.4548,38.3639 C173.2238,38.4299 172.9048,38.5179 172.5748,38.5179 C171.5078,38.5179 170.8468,38.0119 170.8468,36.8899 L170.8468,33.6119 L169.5828,33.6119 L169.5828,32.7759 L170.8468,32.7759 L170.8468,31.4769 L171.8818,31.1469 L171.8818,32.7759 L173.3668,32.7759 L173.3668,33.6119 Z" id="Fill-50" fill="#FEFEFE" mask="url(#mask-4)"></path>
        <path d="M174.3385,30.1353 L175.3725,30.1353 L175.3725,33.5783 L175.3955,33.5783 C175.7695,32.9853 176.4175,32.6433 177.1985,32.6433 C178.6505,32.6433 179.3005,33.5453 179.3005,35.0533 L179.3005,38.3863 L178.2665,38.3863 L178.2665,35.4823 C178.2665,34.1723 177.9805,33.5343 177.0775,33.4803 C175.9005,33.4803 175.3725,34.4253 175.3725,35.7893 L175.3725,38.3863 L174.3385,38.3863 L174.3385,30.1353 Z" id="Fill-51" fill="#FEFEFE" mask="url(#mask-4)"></path>
        <path d="M184.4322,35.0416 C184.4322,34.1846 183.9262,33.4796 183.0352,33.4796 C182.0232,33.4796 181.6052,34.3156 181.5282,35.0416 L184.4322,35.0416 Z M185.1032,38.1546 C184.7072,38.2986 184.2562,38.5186 183.3312,38.5186 C181.3402,38.5186 180.4272,37.3086 180.4272,35.4816 C180.4272,33.8206 181.4722,32.6436 183.0572,32.6436 C184.9272,32.6436 185.5322,34.0076 185.5322,35.8126 L181.5282,35.8126 C181.5282,36.9236 182.3972,37.6826 183.3752,37.6826 C184.0582,37.6826 184.8502,37.3306 185.1032,37.1206 L185.1032,38.1546 Z" id="Fill-52" fill="#FEFEFE" mask="url(#mask-4)"></path>
        <path d="M192.1207,33.48 C190.9987,33.48 190.4597,34.546 190.4597,35.592 C190.4597,36.527 190.9437,37.682 192.1097,37.682 C193.2217,37.682 193.6827,36.439 193.6617,35.559 C193.6827,34.546 193.2427,33.48 192.1207,33.48 L192.1207,33.48 Z M189.4257,30.135 L190.4597,30.135 L190.4597,33.546 L190.4817,33.546 C190.8007,33.029 191.3617,32.643 192.3417,32.643 C193.9697,32.643 194.7617,33.974 194.7617,35.482 C194.7617,37.022 194.0467,38.518 192.3527,38.518 C191.3507,38.518 190.7127,38.012 190.4377,37.594 L190.4157,37.594 L190.4157,38.386 L189.4257,38.386 L189.4257,30.135 Z" id="Fill-53" fill="#FEFEFE" mask="url(#mask-4)"></path>
        <path d="M200.8678,38.3863 L199.8668,38.3863 L199.8668,37.4943 L199.8448,37.4943 C199.5368,38.1333 198.7888,38.5183 198.0078,38.5183 C196.5558,38.5183 195.9058,37.6163 195.9058,36.1093 L195.9058,32.7763 L196.9398,32.7763 L196.9398,35.6803 C196.9398,36.9893 197.2258,37.6273 198.1288,37.6823 C199.3058,37.6823 199.8338,36.7363 199.8338,35.3713 L199.8338,32.7763 L200.8678,32.7763 L200.8678,38.3863 Z" id="Fill-54" fill="#FEFEFE" mask="url(#mask-4)"></path>
        <path d="M202.067,37.2857 C202.474,37.5507 203.057,37.6817 203.354,37.6817 C203.828,37.6817 204.411,37.4837 204.411,36.8797 C204.411,35.8557 201.979,35.9437 201.979,34.3707 C201.979,33.2047 202.848,32.6427 203.96,32.6427 C204.444,32.6427 204.84,32.7427 205.247,32.8637 L205.159,33.7657 C204.927,33.6227 204.311,33.4797 204.07,33.4797 C203.542,33.4797 203.08,33.6997 203.08,34.1617 C203.08,35.3067 205.51,34.9757 205.51,36.7687 C205.51,37.9687 204.553,38.5177 203.552,38.5177 C203.024,38.5177 202.485,38.4637 202.012,38.2107 L202.067,37.2857 Z" id="Fill-55" fill="#FEFEFE" mask="url(#mask-4)"></path>
        <path d="M206.588,38.3856 L207.622,38.3856 L207.622,32.7756 L206.588,32.7756 L206.588,38.3856 Z M206.523,31.5206 L207.689,31.5206 L207.689,30.3546 L206.523,30.3546 L206.523,31.5206 Z" id="Fill-56" fill="#FEFEFE" mask="url(#mask-4)"></path>
        <path d="M209.1695,32.7759 L210.1705,32.7759 L210.1705,33.6669 L210.1925,33.6669 C210.5005,33.0289 211.2485,32.6429 212.0295,32.6429 C213.4815,32.6429 214.1315,33.5459 214.1315,35.0529 L214.1315,38.3859 L213.0975,38.3859 L213.0975,35.4819 C213.0975,34.1719 212.8115,33.5349 211.9085,33.4799 C210.7315,33.4799 210.2035,34.4249 210.2035,35.7899 L210.2035,38.3859 L209.1695,38.3859 L209.1695,32.7759 Z" id="Fill-57" fill="#FEFEFE" mask="url(#mask-4)"></path>
        <path d="M219.2643,35.0416 C219.2643,34.1846 218.7583,33.4796 217.8663,33.4796 C216.8553,33.4796 216.4373,34.3156 216.3603,35.0416 L219.2643,35.0416 Z M219.9353,38.1546 C219.5393,38.2986 219.0883,38.5186 218.1633,38.5186 C216.1723,38.5186 215.2593,37.3086 215.2593,35.4816 C215.2593,33.8206 216.3043,32.6436 217.8893,32.6436 C219.7593,32.6436 220.3643,34.0076 220.3643,35.8126 L216.3603,35.8126 C216.3603,36.9236 217.2293,37.6826 218.2073,37.6826 C218.8903,37.6826 219.6823,37.3306 219.9353,37.1206 L219.9353,38.1546 Z" id="Fill-58" fill="#FEFEFE" mask="url(#mask-4)"></path>
        <path d="M221.193,37.2857 C221.6,37.5507 222.183,37.6817 222.48,37.6817 C222.954,37.6817 223.537,37.4837 223.537,36.8797 C223.537,35.8557 221.105,35.9437 221.105,34.3707 C221.105,33.2047 221.974,32.6427 223.086,32.6427 C223.57,32.6427 223.965,32.7427 224.373,32.8637 L224.285,33.7657 C224.053,33.6227 223.437,33.4797 223.195,33.4797 C222.668,33.4797 222.206,33.6997 222.206,34.1617 C222.206,35.3067 224.636,34.9757 224.636,36.7687 C224.636,37.9687 223.679,38.5177 222.678,38.5177 C222.15,38.5177 221.611,38.4637 221.138,38.2107 L221.193,37.2857 Z" id="Fill-59" fill="#FEFEFE" mask="url(#mask-4)"></path>
        <path d="M225.3248,37.2857 C225.7318,37.5507 226.3148,37.6817 226.6118,37.6817 C227.0858,37.6817 227.6688,37.4837 227.6688,36.8797 C227.6688,35.8557 225.2368,35.9437 225.2368,34.3707 C225.2368,33.2047 226.1058,32.6427 227.2178,32.6427 C227.7018,32.6427 228.0978,32.7427 228.5048,32.8637 L228.4168,33.7657 C228.1848,33.6227 227.5688,33.4797 227.3278,33.4797 C226.7998,33.4797 226.3378,33.6997 226.3378,34.1617 C226.3378,35.3067 228.7678,34.9757 228.7678,36.7687 C228.7678,37.9687 227.8108,38.5177 226.8098,38.5177 C226.2818,38.5177 225.7428,38.4637 225.2698,38.2107 L225.3248,37.2857 Z" id="Fill-60" fill="#FEFEFE" mask="url(#mask-4)"></path>
        <path d="M235.0162,37.6822 C236.2262,37.6822 236.7662,36.5812 236.7662,35.5802 C236.7662,34.5142 236.1172,33.4802 235.0162,33.4802 C233.9052,33.4802 233.2562,34.5142 233.2562,35.5802 C233.2562,36.5812 233.7952,37.6822 235.0162,37.6822 M235.0162,32.6432 C236.7212,32.6432 237.8662,33.8752 237.8662,35.5802 C237.8662,37.1872 236.7002,38.5182 235.0162,38.5182 C233.3222,38.5182 232.1562,37.1872 232.1562,35.5802 C232.1562,33.8752 233.3002,32.6432 235.0162,32.6432" id="Fill-61" fill="#FEFEFE" mask="url(#mask-4)"></path>
        <path d="M239.5621,33.6119 L238.2431,33.6119 L238.2431,32.7759 L239.5621,32.7759 L239.5621,32.2579 C239.5621,30.8939 239.9151,30.0039 241.4441,30.0039 C241.7071,30.0039 241.9281,30.0359 242.1371,30.0689 L242.0931,30.9049 C241.9721,30.8609 241.7741,30.8399 241.5981,30.8399 C240.7071,30.8399 240.5961,31.4119 240.5961,32.1709 L240.5961,32.7759 L242.0821,32.7759 L242.0821,33.6119 L240.5961,33.6119 L240.5961,38.3859 L239.5621,38.3859 L239.5621,33.6119 Z" id="Fill-62" fill="#FEFEFE" mask="url(#mask-4)"></path>
        <path d="M249.0123,35.7125 C248.7913,35.7125 248.5723,35.6915 248.3523,35.6915 C247.7903,35.6915 246.4053,35.7785 246.4053,36.7695 C246.4053,37.3625 246.9773,37.6825 247.4493,37.6825 C248.4733,37.6825 249.0123,37.0445 249.0123,36.2075 L249.0123,35.7125 Z M245.9433,33.1715 C246.4593,32.8635 247.0753,32.6435 247.7903,32.6435 C249.3973,32.6435 250.0463,33.4355 250.0463,34.9645 L250.0463,37.2855 C250.0463,37.9245 250.0683,38.2215 250.0903,38.3865 L249.1213,38.3865 L249.1213,37.6595 L249.1003,37.6595 C248.8583,38.0015 248.3083,38.5185 247.3623,38.5185 C246.1523,38.5185 245.3043,37.9895 245.3043,36.7695 C245.3043,35.3605 246.8443,34.9205 247.9113,34.9205 C248.3193,34.9205 248.6053,34.9205 249.0123,34.9425 C249.0123,33.9745 248.6593,33.4805 247.6253,33.4805 C247.0423,33.4805 246.4153,33.6995 245.9973,34.0515 L245.9433,33.1715 Z" id="Fill-63" fill="#FEFEFE" mask="url(#mask-4)"></path>
        <path d="M255.4527,35.647 C255.4527,34.481 254.9137,33.48 253.8137,33.48 C252.7687,33.48 252.2517,34.613 252.2517,35.57 C252.2517,36.626 252.8457,37.55 253.8137,37.55 C254.7817,37.55 255.4527,36.692 255.4527,35.647 L255.4527,35.647 Z M256.4867,38.144 C256.4867,39.849 255.6067,40.829 253.5937,40.829 C252.9997,40.829 252.4817,40.752 251.5807,40.444 L251.6897,39.487 C252.4817,39.849 252.9557,39.993 253.7147,39.993 C254.8037,39.993 255.4527,39.255 255.4527,38.067 L255.4527,37.517 L255.4317,37.517 C254.9907,38.1 254.2647,38.386 253.5497,38.386 C251.9427,38.386 251.1507,37.077 251.1507,35.625 C251.1507,34.184 251.9657,32.643 253.6597,32.643 C254.6497,32.643 255.1997,33.006 255.5077,33.612 L255.5297,33.612 L255.5297,32.776 L256.4867,32.776 L256.4867,38.144 Z" id="Fill-64" fill="#FEFEFE" mask="url(#mask-4)"></path>
        <path d="M257.9605,32.7759 L258.9295,32.7759 L258.9295,33.6449 L258.9505,33.6449 C259.2265,33.0609 259.8195,32.6429 260.4135,32.6429 C260.7225,32.6429 260.8765,32.6759 261.0965,32.7199 L261.0965,33.6449 C260.9085,33.5679 260.6995,33.5459 260.5235,33.5459 C259.6005,33.5459 258.9945,34.4249 258.9945,35.8339 L258.9945,38.3859 L257.9605,38.3859 L257.9605,32.7759 Z" id="Fill-65" fill="#FEFEFE" mask="url(#mask-4)"></path>
        <path d="M262.012,38.3856 L263.046,38.3856 L263.046,32.7756 L262.012,32.7756 L262.012,38.3856 Z M261.947,31.5206 L263.113,31.5206 L263.113,30.3546 L261.947,30.3546 L261.947,31.5206 Z" id="Fill-66" fill="#FEFEFE" mask="url(#mask-4)"></path>
        <path d="M268.2173,33.7212 C267.8223,33.5562 267.4253,33.4802 267.0953,33.4802 C265.9403,33.4802 265.2913,34.5142 265.2913,35.5802 C265.2913,36.5812 265.8303,37.6822 267.1613,37.6822 C267.5133,37.6822 267.9533,37.5722 268.2733,37.3632 L268.3493,38.2872 C267.9203,38.4852 267.4253,38.5182 267.0513,38.5182 C265.3573,38.5182 264.1913,37.1872 264.1913,35.5802 C264.1913,33.8752 265.3353,32.6432 267.0513,32.6432 C267.4693,32.6432 268.0083,32.7422 268.3053,32.8642 L268.2173,33.7212 Z" id="Fill-67" fill="#FEFEFE" mask="url(#mask-4)"></path>
        <path d="M274.1617,38.3863 L273.1607,38.3863 L273.1607,37.4943 L273.1387,37.4943 C272.8307,38.1333 272.0827,38.5183 271.3017,38.5183 C269.8497,38.5183 269.1997,37.6163 269.1997,36.1093 L269.1997,32.7763 L270.2337,32.7763 L270.2337,35.6803 C270.2337,36.9893 270.5197,37.6273 271.4227,37.6823 C272.5997,37.6823 273.1277,36.7363 273.1277,35.3713 L273.1277,32.7763 L274.1617,32.7763 L274.1617,38.3863 Z" id="Fill-68" fill="#FEFEFE" mask="url(#mask-4)"></path>
        <polygon id="Fill-69" fill="#FEFEFE" mask="url(#mask-4)" points="275.699 38.3866 276.733 38.3866 276.733 30.1356 275.699 30.1356"></polygon>
        <path d="M281.3394,33.6119 L279.8544,33.6119 L279.8544,36.6809 C279.8544,37.3309 280.2504,37.6819 280.7234,37.6819 C281.0424,37.6819 281.2744,37.5839 281.4274,37.4839 L281.4274,38.3639 C281.1964,38.4299 280.8774,38.5179 280.5474,38.5179 C279.4804,38.5179 278.8194,38.0119 278.8194,36.8899 L278.8194,33.6119 L277.5554,33.6119 L277.5554,32.7759 L278.8194,32.7759 L278.8194,31.4769 L279.8544,31.1469 L279.8544,32.7759 L281.3394,32.7759 L281.3394,33.6119 Z" id="Fill-70" fill="#FEFEFE" mask="url(#mask-4)"></path>
        <path d="M287.23,38.3863 L286.229,38.3863 L286.229,37.4943 L286.207,37.4943 C285.899,38.1333 285.151,38.5183 284.37,38.5183 C282.918,38.5183 282.268,37.6163 282.268,36.1093 L282.268,32.7763 L283.302,32.7763 L283.302,35.6803 C283.302,36.9893 283.588,37.6273 284.491,37.6823 C285.668,37.6823 286.196,36.7363 286.196,35.3713 L286.196,32.7763 L287.23,32.7763 L287.23,38.3863 Z" id="Fill-71" fill="#FEFEFE" mask="url(#mask-4)"></path>
        <path d="M288.7036,32.7759 L289.6726,32.7759 L289.6726,33.6449 L289.6936,33.6449 C289.9696,33.0609 290.5626,32.6429 291.1566,32.6429 C291.4656,32.6429 291.6196,32.6759 291.8396,32.7199 L291.8396,33.6449 C291.6516,33.5679 291.4426,33.5459 291.2676,33.5459 C290.3436,33.5459 289.7376,34.4249 289.7376,35.8339 L289.7376,38.3859 L288.7036,38.3859 L288.7036,32.7759 Z" id="Fill-72" fill="#FEFEFE" mask="url(#mask-4)"></path>
        <path d="M296.2721,35.0416 C296.2721,34.1846 295.7661,33.4796 294.8741,33.4796 C293.8631,33.4796 293.4451,34.3156 293.3681,35.0416 L296.2721,35.0416 Z M296.9431,38.1546 C296.5471,38.2986 296.0961,38.5186 295.1711,38.5186 C293.1801,38.5186 292.2671,37.3086 292.2671,35.4816 C292.2671,33.8206 293.3121,32.6436 294.8971,32.6436 C296.7671,32.6436 297.3721,34.0076 297.3721,35.8126 L293.3681,35.8126 C293.3681,36.9236 294.2371,37.6826 295.2151,37.6826 C295.8981,37.6826 296.6901,37.3306 296.9431,37.1206 L296.9431,38.1546 Z" id="Fill-73" fill="#FEFEFE" mask="url(#mask-4)"></path>
    </g>
</svg>
